<svg id="Layer_1" data-name="Layer 1" xmlns="http://www.w3.org/2000/svg" viewBox="0 0 1316.72 79.07"><defs><style>.cls-1{fill:#e06b30;}.cls-2{fill:#fff;}.cls-3{isolation:isolate;}</style></defs><polygon class="cls-1" points="245.25 79.07 0 79.07 26.8 39.53 0 0 245.25 0 272.05 39.53 245.25 79.07"/><path class="cls-2" d="M84.63,49.84A9.78,9.78,0,0,1,80.87,58q-3.75,3-10.37,3a24.8,24.8,0,0,1-10.82-2V53a29.39,29.39,0,0,0,5.67,2,23.91,23.91,0,0,0,5.58.72c2.52,0,4.39-.48,5.58-1.44a4.7,4.7,0,0,0,1.8-3.86,4.84,4.84,0,0,0-1.65-3.71c-1.1-1-3.38-2.21-6.82-3.6a18.65,18.65,0,0,1-7.52-5.05,10.47,10.47,0,0,1-2.18-6.66,9.33,9.33,0,0,1,3.44-7.7Q67,20.9,72.88,20.9A27.19,27.19,0,0,1,84,23.35l-2,5.19a24.39,24.39,0,0,0-9.28-2.18,7.11,7.11,0,0,0-4.69,1.35,4.44,4.44,0,0,0-1.6,3.55,5.12,5.12,0,0,0,.64,2.6,6.51,6.51,0,0,0,2.11,2,35.54,35.54,0,0,0,5.28,2.53,29.13,29.13,0,0,1,6.29,3.33,10.09,10.09,0,0,1,2.93,3.49A10.53,10.53,0,0,1,84.63,49.84Z"/><path class="cls-2" d="M105.63,60.42H99.26V26.92H87.8V21.46h29.29v5.46H105.63Z"/><path class="cls-2" d="M145.1,60.42h-22v-39h22V26.8H129.43V37.45h14.68v5.33H129.43V55.05H145.1Z"/><path class="cls-2" d="M179.32,33.24q0,6.09-4,9.35t-11.38,3.25h-4.05V60.42h-6.37v-39h11.22q7.31,0,10.94,3T179.32,33.24Zm-19.43,7.24h3.38c3.27,0,5.67-.56,7.2-1.7a6.18,6.18,0,0,0,2.29-5.33,6,6,0,0,0-2-5c-1.37-1.1-3.51-1.65-6.4-1.65h-4.42Z"/><path class="cls-2" d="M216.92,60.42h-6.26V35.26q0-4.5.21-7.14c-.41.42-.91.9-1.5,1.41s-2.59,2.15-6,4.9l-3.14-4,11.46-9h5.22Z"/><polygon class="cls-1" points="506.58 79.07 261.33 79.07 288.14 39.53 261.33 0 506.58 0 533.39 39.53 506.58 79.07"/><path class="cls-2" d="M340.12,49.84A9.78,9.78,0,0,1,336.36,58q-3.75,3-10.36,3a24.66,24.66,0,0,1-10.82-2V53a29.07,29.07,0,0,0,5.66,2,23.91,23.91,0,0,0,5.58.72c2.53,0,4.4-.48,5.59-1.44a4.7,4.7,0,0,0,1.8-3.86,4.83,4.83,0,0,0-1.66-3.71q-1.65-1.52-6.82-3.6-5.32-2.16-7.51-4.93a10.4,10.4,0,0,1-2.19-6.66,9.33,9.33,0,0,1,3.47-7.68C321.4,22,324.51,21,328.4,21a27.22,27.22,0,0,1,11.18,2.31l-2,5.19a24.38,24.38,0,0,0-9.27-2.18,7.09,7.09,0,0,0-4.73,1.35,4.38,4.38,0,0,0-1.6,3.55,4.92,4.92,0,0,0,.64,2.6,6.47,6.47,0,0,0,2.1,2A35.54,35.54,0,0,0,330,38.39a28.7,28.7,0,0,1,6.29,3.33,9.79,9.79,0,0,1,2.93,3.49A10.55,10.55,0,0,1,340.12,49.84Z"/><path class="cls-2" d="M361.12,60.42h-6.37V26.92H343.29V21.46h29.29v5.46H361.12Z"/><path class="cls-2" d="M400.58,60.42h-22v-39h22V26.8H384.92V37.45h14.66v5.33H384.92V55.05h15.66Z"/><path class="cls-2" d="M434.81,33.24q0,6.09-4,9.35t-11.38,3.25h-4.05V60.42H409v-39h11.22q7.31,0,10.94,3T434.81,33.24Zm-19.43,7.24h3.39c3.27,0,5.67-.56,7.19-1.7a6.22,6.22,0,0,0,2.3-5.33,6,6,0,0,0-2.06-5q-2.06-1.65-6.39-1.65h-4.43Z"/><path class="cls-2" d="M480.44,60.42H454V55.68l10-10.11a86,86,0,0,0,5.91-6.46,15.54,15.54,0,0,0,2.11-3.58,9.66,9.66,0,0,0,.67-3.6,5.5,5.5,0,0,0-1.58-4.16,6.09,6.09,0,0,0-4.39-1.52,11.7,11.7,0,0,0-4.33.83,20.58,20.58,0,0,0-4.84,3l-3.38-4.13a21.94,21.94,0,0,1,6.38-3.87,18.62,18.62,0,0,1,6.52-1.14,12.86,12.86,0,0,1,8.72,2.83,9.64,9.64,0,0,1,3.28,7.64,13.38,13.38,0,0,1-1,5,20.63,20.63,0,0,1-2.9,4.89,66.48,66.48,0,0,1-6.54,6.78l-6.77,6.56v.26h18.5Z"/><polygon class="cls-1" points="767.91 79.07 522.66 79.07 549.47 39.53 522.66 0 767.91 0 794.72 39.53 767.91 79.07"/><path class="cls-2" d="M603.58,49.84A9.85,9.85,0,0,1,599.82,58q-3.77,3-10.37,3a24.66,24.66,0,0,1-10.82-2V53a30.7,30.7,0,0,0,5.66,2,23.93,23.93,0,0,0,5.59.72q3.78,0,5.58-1.44a4.7,4.7,0,0,0,1.8-3.86,4.84,4.84,0,0,0-1.65-3.71q-1.65-1.52-6.83-3.6a17.52,17.52,0,0,1-7.47-5.05,10.4,10.4,0,0,1-2.19-6.66,9.35,9.35,0,0,1,3.46-7.7q3.46-2.79,9.3-2.79A27.3,27.3,0,0,1,603,23.35l-2,5.19a24.38,24.38,0,0,0-9.27-2.18,7.11,7.11,0,0,0-4.69,1.35,4.38,4.38,0,0,0-1.6,3.55,4.92,4.92,0,0,0,.64,2.6,6.58,6.58,0,0,0,2.1,2,35.54,35.54,0,0,0,5.28,2.53,28.7,28.7,0,0,1,6.29,3.33,9.79,9.79,0,0,1,2.93,3.49A10.53,10.53,0,0,1,603.58,49.84Z"/><path class="cls-2" d="M624.58,60.42h-6.37V26.92H606.79V21.46h29.29v5.46h-11.5Z"/><path class="cls-2" d="M664.09,60.42h-22v-39h22V26.8H648.41V37.45H663.1v5.33H648.41V55.05h15.68Z"/><path class="cls-2" d="M698.3,33.24q0,6.09-4,9.35t-11.38,3.25h-4V60.42h-6.37v-39h11.22q7.29,0,10.94,3T698.3,33.24Zm-19.42,7.24h3.38c3.27,0,5.67-.56,7.2-1.7a6.24,6.24,0,0,0,2.29-5.33,6.06,6.06,0,0,0-2-5q-2.06-1.65-6.4-1.65h-4.47Z"/><path class="cls-2" d="M742.46,30.41a9,9,0,0,1-2.15,6.17,10.92,10.92,0,0,1-6.08,3.32v.21c3.13.39,5.47,1.37,7,2.92a8.31,8.31,0,0,1,2.35,6.2,10.28,10.28,0,0,1-4,8.67q-4,3-11.3,3a25.49,25.49,0,0,1-10.93-2.1V53.28a25.92,25.92,0,0,0,5.25,1.89,22.75,22.75,0,0,0,5.33.66c3,0,5.28-.55,6.77-1.67a6.08,6.08,0,0,0,2.24-5.2,4.94,4.94,0,0,0-2.48-4.58c-1.65-1-4.25-1.47-7.78-1.47H723.3V37.82h3.43q9.33,0,9.33-6.45a4.74,4.74,0,0,0-1.62-3.86,7.34,7.34,0,0,0-4.8-1.36,15.05,15.05,0,0,0-4.27.62,20.41,20.41,0,0,0-4.79,2.44l-3.06-4.37A20.46,20.46,0,0,1,730,20.9c3.92,0,7,.84,9.19,2.53A8.31,8.31,0,0,1,742.46,30.41Z"/><polygon class="cls-1" points="1289.91 79.07 1044.66 79.07 1071.47 39.53 1044.66 0 1289.91 0 1316.72 39.53 1289.91 79.07"/><g class="cls-3"><path class="cls-2" d="M1094.65,44.29v15.6h-6.39v-39h11c5,0,8.77.95,11.19,2.83s3.63,4.74,3.63,8.55q0,7.29-7.59,10.39l11,17.28h-7.26L1101,44.29Zm0-5.29h4.43c3,0,5.13-.55,6.47-1.65a6,6,0,0,0,2-4.92,5.29,5.29,0,0,0-2.16-4.75q-2.17-1.44-6.52-1.44h-4.22Z"/><path class="cls-2" d="M1145.32,59.89h-22.09v-39h22.09v5.4h-15.71V36.87h14.72v5.34h-14.72V54.47h15.71Z"/><path class="cls-2" d="M1176,20.84h6.63L1169,59.89h-6.73l-13.62-39h6.57l8.15,24.28c.42,1.16.88,2.65,1.36,4.47s.79,3.19.93,4.08c.23-1.36.59-2.92,1.07-4.7s.87-3.1,1.18-4Z"/><path class="cls-2" d="M1187.78,59.89v-39h6.39V59.89Z"/><path class="cls-2" d="M1226.56,59.89h-22.08v-39h22.08v5.4h-15.7V36.87h14.72v5.34h-14.72V54.47h15.7Z"/><path class="cls-2" d="M1271,59.89h-6.94l-6.62-23.29c-.29-1-.64-2.48-1.07-4.39s-.69-3.25-.78-4c-.17,1.14-.46,2.62-.86,4.44s-.74,3.17-1,4.06l-6.46,23.18h-6.94l-5-19.55-5.13-19.5h6.52l5.58,22.76q1.31,5.48,1.87,9.67c.19-1.52.49-3.21.88-5.08s.75-3.38,1.07-4.54l6.36-22.81h6.33l6.51,22.92a85.32,85.32,0,0,1,2,9.51,70.91,70.91,0,0,1,1.92-9.73l5.56-22.7h6.46Z"/></g><polygon class="cls-1" points="1028.91 79.07 783.66 79.07 810.47 39.53 783.66 0 1028.91 0 1055.72 39.53 1028.91 79.07"/><g class="cls-3"><path class="cls-2" d="M861.78,49.29A9.81,9.81,0,0,1,858,57.46q-3.76,3-10.38,3a24.82,24.82,0,0,1-10.85-2.05v-6a29.09,29.09,0,0,0,5.68,2,24.08,24.08,0,0,0,5.59.72q3.8,0,5.6-1.44a4.72,4.72,0,0,0,1.8-3.88A4.84,4.84,0,0,0,853.79,46c-1.1-1-3.38-2.22-6.83-3.6s-6.08-3.09-7.54-4.95a10.42,10.42,0,0,1-2.18-6.67,9.32,9.32,0,0,1,3.47-7.69q3.46-2.81,9.32-2.81a27.33,27.33,0,0,1,11.16,2.46l-2,5.21a24.38,24.38,0,0,0-9.29-2.19,7.18,7.18,0,0,0-4.7,1.34,4.43,4.43,0,0,0-1.6,3.57,5,5,0,0,0,.64,2.6,6.38,6.38,0,0,0,2.11,2,34.54,34.54,0,0,0,5.28,2.53,29.48,29.48,0,0,1,6.31,3.34,10,10,0,0,1,2.94,3.5A10.58,10.58,0,0,1,861.78,49.29Z"/><path class="cls-2" d="M882.83,59.89h-6.39V26.32H865V20.84h29.35v5.48H882.83Z"/><path class="cls-2" d="M922.38,59.89H900.29v-39h22.09v5.4h-15.7V36.87h14.71v5.34H906.68V54.47h15.7Z"/><path class="cls-2" d="M956.68,32.65q0,6.12-4,9.37t-11.4,3.26h-4.06V59.89h-6.39v-39h11.25q7.32,0,11,3T956.68,32.65Zm-19.47,7.26h3.39q4.92,0,7.21-1.71a6.23,6.23,0,0,0,2.3-5.34,6.06,6.06,0,0,0-2.06-5c-1.37-1.1-3.51-1.66-6.41-1.66h-4.43Z"/><path class="cls-2" d="M1003.79,51.37h-5.26v8.52h-6.12V51.37H974.57V46.54l17.84-25.81h6.12V46.16h5.26Zm-11.38-5.21v-9.8q0-5.24.27-8.57h-.21a30.34,30.34,0,0,1-2.35,4.27l-9.7,14.1Z"/></g></svg>