<svg id="Layer_1" data-name="Layer 1" xmlns="http://www.w3.org/2000/svg" viewBox="0 0 1317 79.07"><defs><style>.cls-1,.cls-3{fill:#fff;}.cls-1{opacity:0;}.cls-2{fill:#e06b30;}</style></defs><rect class="cls-1" y="0.05" width="1317" height="79"/><polygon class="cls-2" points="245.67 79.07 0.42 79.07 27.22 39.53 0.42 0 245.67 0 272.48 39.53 245.67 79.07"/><path class="cls-3" d="M85.05,49.84A9.78,9.78,0,0,1,81.29,58q-3.75,3-10.37,3A24.8,24.8,0,0,1,60.1,59V53a29.39,29.39,0,0,0,5.67,2,23.91,23.91,0,0,0,5.58.72c2.52,0,4.39-.48,5.58-1.44a4.7,4.7,0,0,0,1.8-3.86,4.84,4.84,0,0,0-1.65-3.71c-1.1-1-3.38-2.21-6.82-3.6a18.65,18.65,0,0,1-7.52-5.05,10.47,10.47,0,0,1-2.18-6.66A9.33,9.33,0,0,1,64,23.69q3.47-2.79,9.3-2.79a27.19,27.19,0,0,1,11.16,2.45l-2,5.19a24.39,24.39,0,0,0-9.28-2.18,7.11,7.11,0,0,0-4.69,1.35,4.44,4.44,0,0,0-1.6,3.55,5.12,5.12,0,0,0,.64,2.6,6.51,6.51,0,0,0,2.11,2,35.54,35.54,0,0,0,5.28,2.53,29.13,29.13,0,0,1,6.29,3.33,10.09,10.09,0,0,1,2.93,3.49A10.53,10.53,0,0,1,85.05,49.84Z"/><path class="cls-3" d="M106.05,60.42H99.68V26.92H88.22V21.46h29.29v5.46H106.05Z"/><path class="cls-3" d="M145.52,60.42h-22v-39h22V26.8H129.85V37.45h14.68v5.33H129.85V55.05h15.67Z"/><path class="cls-3" d="M179.74,33.24q0,6.09-4,9.35t-11.38,3.25h-4.05V60.42h-6.37v-39h11.22q7.31,0,10.94,3T179.74,33.24Zm-19.43,7.24h3.38c3.27,0,5.67-.56,7.2-1.7a6.18,6.18,0,0,0,2.29-5.33,6,6,0,0,0-2.05-5c-1.37-1.1-3.51-1.65-6.4-1.65h-4.42Z"/><path class="cls-3" d="M217.34,60.42h-6.26V35.26q0-4.5.21-7.14c-.41.42-.91.9-1.5,1.41s-2.59,2.15-6,4.9l-3.14-4,11.46-9h5.22Z"/><polygon class="cls-2" points="507 79.07 261.75 79.07 288.56 39.53 261.75 0 507 0 533.81 39.53 507 79.07"/><path class="cls-3" d="M340.54,49.84A9.78,9.78,0,0,1,336.78,58q-3.75,3-10.36,3a24.66,24.66,0,0,1-10.82-2V53a29.07,29.07,0,0,0,5.66,2,23.91,23.91,0,0,0,5.58.72c2.53,0,4.4-.48,5.59-1.44a4.7,4.7,0,0,0,1.8-3.86,4.83,4.83,0,0,0-1.66-3.71q-1.65-1.52-6.82-3.6-5.33-2.16-7.51-4.93a10.4,10.4,0,0,1-2.19-6.66,9.33,9.33,0,0,1,3.47-7.68c2.3-1.86,5.41-2.79,9.3-2.79A27.22,27.22,0,0,1,340,23.35l-2,5.19a24.38,24.38,0,0,0-9.27-2.18A7.09,7.09,0,0,0,324,27.71a4.38,4.38,0,0,0-1.6,3.55,4.92,4.92,0,0,0,.64,2.6,6.47,6.47,0,0,0,2.1,2,35.54,35.54,0,0,0,5.28,2.53,28.7,28.7,0,0,1,6.29,3.33,9.79,9.79,0,0,1,2.93,3.49A10.55,10.55,0,0,1,340.54,49.84Z"/><path class="cls-3" d="M361.54,60.42h-6.37V26.92H343.71V21.46H373v5.46H361.54Z"/><path class="cls-3" d="M401,60.42H379v-39h22V26.8H385.34V37.45H400v5.33H385.34V55.05H401Z"/><path class="cls-3" d="M435.23,33.24q0,6.09-4,9.35t-11.38,3.25H415.8V60.42h-6.37v-39h11.22q7.31,0,10.94,3T435.23,33.24ZM415.8,40.48h3.39c3.27,0,5.67-.56,7.19-1.7a6.22,6.22,0,0,0,2.3-5.33,6,6,0,0,0-2.06-5q-2.06-1.65-6.39-1.65H415.8Z"/><path class="cls-3" d="M480.86,60.42H454.45V55.68l10-10.11a86,86,0,0,0,5.91-6.46,15.54,15.54,0,0,0,2.11-3.58,9.66,9.66,0,0,0,.67-3.6,5.5,5.5,0,0,0-1.58-4.16,6.09,6.09,0,0,0-4.39-1.52,11.7,11.7,0,0,0-4.33.83,20.58,20.58,0,0,0-4.84,3l-3.38-4.13A21.94,21.94,0,0,1,461,22.05a18.62,18.62,0,0,1,6.52-1.14,12.86,12.86,0,0,1,8.72,2.83,9.64,9.64,0,0,1,3.28,7.64,13.38,13.38,0,0,1-.95,5,20.63,20.63,0,0,1-2.9,4.89,66.48,66.48,0,0,1-6.54,6.78l-6.77,6.56v.26h18.5Z"/></svg>