<svg id="Layer_1" data-name="Layer 1" xmlns="http://www.w3.org/2000/svg" viewBox="0 0 1317 79.51"><defs><style>.cls-1,.cls-3{fill:#fff;}.cls-1{fill-opacity:0;}.cls-2{fill:#e06b30;}.cls-4{fill:#8e8c99;}</style></defs><rect class="cls-1" y="0.51" width="1317" height="79"/><polygon class="cls-2" points="245.39 79.07 0.14 79.07 26.94 39.53 0.14 0 245.39 0 272.19 39.53 245.39 79.07"/><path class="cls-3" d="M84.63,49.84A9.8,9.8,0,0,1,80.87,58q-3.75,3-10.37,3a24.8,24.8,0,0,1-10.82-2V53a29.39,29.39,0,0,0,5.67,2,23.91,23.91,0,0,0,5.58.72c2.52,0,4.39-.48,5.58-1.44a4.71,4.71,0,0,0,1.8-3.86,4.84,4.84,0,0,0-1.65-3.71c-1.1-1-3.38-2.21-6.82-3.6a18.61,18.61,0,0,1-7.52-5,10.47,10.47,0,0,1-2.18-6.66,9.33,9.33,0,0,1,3.44-7.7q3.42-2.81,9.3-2.8A27.17,27.17,0,0,1,84,23.35l-2,5.19a24.39,24.39,0,0,0-9.28-2.18A7.11,7.11,0,0,0,68,27.71a4.44,4.44,0,0,0-1.6,3.55,5.12,5.12,0,0,0,.64,2.6,6.41,6.41,0,0,0,2.11,2,35.54,35.54,0,0,0,5.28,2.53,29.37,29.37,0,0,1,6.29,3.33,10.09,10.09,0,0,1,2.93,3.49A10.54,10.54,0,0,1,84.63,49.84Z" transform="translate(0.14)"/><path class="cls-3" d="M105.63,60.42H99.26V26.92H87.8V21.46h29.29v5.46H105.63Z" transform="translate(0.14)"/><path class="cls-3" d="M145.1,60.42h-22v-39h22V26.8H129.43V37.45h14.68v5.33H129.43V55.05H145.1Z" transform="translate(0.14)"/><path class="cls-3" d="M179.32,33.24q0,6.09-4,9.35t-11.38,3.25h-4.05V60.42h-6.37v-39h11.22q7.31,0,10.94,3T179.32,33.24Zm-19.43,7.24h3.38c3.27,0,5.67-.56,7.2-1.7a6.18,6.18,0,0,0,2.29-5.33,6,6,0,0,0-2-5c-1.37-1.1-3.51-1.65-6.4-1.65h-4.42Z" transform="translate(0.14)"/><path class="cls-3" d="M216.92,60.42h-6.26V35.26q0-4.5.21-7.14c-.41.42-.91.9-1.5,1.41s-2.59,2.15-6,4.9l-3.14-4,11.46-9h5.22Z" transform="translate(0.14)"/><polygon class="cls-4" points="506.72 79.07 261.47 79.07 288.28 39.53 261.47 0 506.72 0 533.53 39.53 506.72 79.07"/><path class="cls-3" d="M340.12,49.84A9.8,9.8,0,0,1,336.36,58q-3.75,3-10.36,3a24.66,24.66,0,0,1-10.82-2V53a29.07,29.07,0,0,0,5.66,2,23.91,23.91,0,0,0,5.58.72c2.53,0,4.4-.48,5.59-1.44a4.71,4.71,0,0,0,1.8-3.86,4.83,4.83,0,0,0-1.66-3.71q-1.65-1.51-6.82-3.6Q320,41,317.82,38.18a10.4,10.4,0,0,1-2.19-6.66,9.33,9.33,0,0,1,3.47-7.68A14.51,14.51,0,0,1,328.4,21a27.22,27.22,0,0,1,11.18,2.31l-2,5.19a24.38,24.38,0,0,0-9.27-2.18,7.09,7.09,0,0,0-4.73,1.35,4.38,4.38,0,0,0-1.6,3.55,4.92,4.92,0,0,0,.64,2.6,6.47,6.47,0,0,0,2.1,2A35.75,35.75,0,0,0,330,38.39a28.28,28.28,0,0,1,6.29,3.33,9.79,9.79,0,0,1,2.93,3.49A10.55,10.55,0,0,1,340.12,49.84Z" transform="translate(0.14)"/><path class="cls-3" d="M361.12,60.42h-6.37V26.92H343.29V21.46h29.29v5.46H361.12Z" transform="translate(0.14)"/><path class="cls-3" d="M400.58,60.42h-22v-39h22V26.8H384.92V37.45h14.66v5.33H384.92V55.05h15.66Z" transform="translate(0.14)"/><path class="cls-3" d="M434.81,33.24q0,6.09-4,9.35t-11.38,3.25h-4.05V60.42H409v-39h11.22q7.3,0,10.94,3T434.81,33.24Zm-19.43,7.24h3.39c3.27,0,5.67-.56,7.19-1.7a6.22,6.22,0,0,0,2.3-5.33,6,6,0,0,0-2.06-5q-2.06-1.65-6.39-1.65h-4.43Z" transform="translate(0.14)"/><path class="cls-3" d="M480.44,60.42H454V55.68l10-10.11a86,86,0,0,0,5.91-6.46A15.54,15.54,0,0,0,472,35.53a9.66,9.66,0,0,0,.67-3.6,5.5,5.5,0,0,0-1.58-4.16,6.09,6.09,0,0,0-4.39-1.52,11.7,11.7,0,0,0-4.33.83,20.7,20.7,0,0,0-4.84,3L454.17,26a22.15,22.15,0,0,1,6.38-3.87,18.62,18.62,0,0,1,6.52-1.14,12.86,12.86,0,0,1,8.72,2.83,9.64,9.64,0,0,1,3.28,7.64,13.39,13.39,0,0,1-1,5,20.63,20.63,0,0,1-2.9,4.89,66.48,66.48,0,0,1-6.54,6.78l-6.77,6.56v.26h18.5Z" transform="translate(0.14)"/><polygon class="cls-4" points="768.05 79.07 522.8 79.07 549.61 39.53 522.8 0 768.05 0 794.86 39.53 768.05 79.07"/><path class="cls-3" d="M603.58,49.84A9.86,9.86,0,0,1,599.82,58q-3.77,3-10.37,3a24.66,24.66,0,0,1-10.82-2V53a30.7,30.7,0,0,0,5.66,2,23.93,23.93,0,0,0,5.59.72q3.78,0,5.58-1.44a4.71,4.71,0,0,0,1.8-3.86,4.84,4.84,0,0,0-1.65-3.71q-1.65-1.51-6.83-3.6a17.47,17.47,0,0,1-7.47-5,10.4,10.4,0,0,1-2.19-6.66,9.35,9.35,0,0,1,3.46-7.7q3.46-2.79,9.3-2.79A27.16,27.16,0,0,1,603,23.35l-2,5.19a24.38,24.38,0,0,0-9.27-2.18A7.11,7.11,0,0,0,587,27.71a4.38,4.38,0,0,0-1.6,3.55,4.92,4.92,0,0,0,.64,2.6,6.58,6.58,0,0,0,2.1,2,35.54,35.54,0,0,0,5.28,2.53,28.28,28.28,0,0,1,6.29,3.33,9.79,9.79,0,0,1,2.93,3.49A10.55,10.55,0,0,1,603.58,49.84Z" transform="translate(0.14)"/><path class="cls-3" d="M624.58,60.42h-6.37V26.92H606.79V21.46h29.29v5.46h-11.5Z" transform="translate(0.14)"/><path class="cls-3" d="M664.09,60.42h-22v-39h22V26.8H648.41V37.45H663.1v5.33H648.41V55.05h15.68Z" transform="translate(0.14)"/><path class="cls-3" d="M698.3,33.24q0,6.09-4,9.35t-11.38,3.25h-4V60.42h-6.37v-39h11.22q7.29,0,10.94,3T698.3,33.24Zm-19.42,7.24h3.38c3.27,0,5.67-.56,7.2-1.7a6.24,6.24,0,0,0,2.29-5.33,6.06,6.06,0,0,0-2-5c-1.37-1.1-3.51-1.65-6.4-1.65h-4.47Z" transform="translate(0.14)"/><path class="cls-3" d="M742.46,30.41a9,9,0,0,1-2.15,6.17,10.92,10.92,0,0,1-6.08,3.32v.21c3.13.39,5.47,1.37,7,2.92a8.31,8.31,0,0,1,2.35,6.2,10.28,10.28,0,0,1-4,8.67q-4,3-11.3,3a25.49,25.49,0,0,1-10.93-2.1V53.28a25.92,25.92,0,0,0,5.25,1.89,22.75,22.75,0,0,0,5.33.66c3,0,5.28-.55,6.77-1.67a6.06,6.06,0,0,0,2.24-5.2,4.94,4.94,0,0,0-2.48-4.58c-1.65-1-4.25-1.47-7.78-1.47H723.3V37.82h3.43q9.33,0,9.33-6.45a4.74,4.74,0,0,0-1.62-3.86,7.34,7.34,0,0,0-4.8-1.36,15.05,15.05,0,0,0-4.27.62,20.41,20.41,0,0,0-4.79,2.44l-3.06-4.37A20.48,20.48,0,0,1,730,20.9c3.92,0,7,.84,9.19,2.53A8.31,8.31,0,0,1,742.46,30.41Z" transform="translate(0.14)"/><polygon class="cls-4" points="1029.05 79.07 783.8 79.07 810.61 39.53 783.8 0 1029.05 0 1055.86 39.53 1029.05 79.07"/><path class="cls-3" d="M861.78,49.29A9.81,9.81,0,0,1,858,57.46q-3.76,3-10.38,3a24.83,24.83,0,0,1-10.85-2.05v-6a29.25,29.25,0,0,0,5.68,2,23.93,23.93,0,0,0,5.59.72q3.8,0,5.6-1.44a4.71,4.71,0,0,0,1.8-3.88A4.86,4.86,0,0,0,853.79,46c-1.1-1-3.38-2.22-6.83-3.6s-6.08-3.09-7.54-4.95a10.36,10.36,0,0,1-2.18-6.67,9.3,9.3,0,0,1,3.47-7.69q3.46-2.81,9.32-2.81a27.24,27.24,0,0,1,11.16,2.46l-2,5.21a24.45,24.45,0,0,0-9.29-2.19,7.16,7.16,0,0,0-4.7,1.34,4.43,4.43,0,0,0-1.6,3.57,4.92,4.92,0,0,0,.64,2.6,6.41,6.41,0,0,0,2.11,2,34.58,34.58,0,0,0,5.28,2.53,29.55,29.55,0,0,1,6.31,3.34,10,10,0,0,1,2.94,3.5A10.47,10.47,0,0,1,861.78,49.29Z" transform="translate(0.14)"/><path class="cls-3" d="M882.83,59.89h-6.39V26.32H865V20.84h29.35v5.48H882.83Z" transform="translate(0.14)"/><path class="cls-3" d="M922.38,59.89H900.29v-39h22.09v5.4h-15.7V36.87h14.71v5.34H906.68V54.47h15.7Z" transform="translate(0.14)"/><path class="cls-3" d="M956.68,32.65q0,6.12-4,9.37t-11.4,3.26h-4.06V59.89h-6.39v-39h11.25q7.32,0,11,3T956.68,32.65Zm-19.47,7.26h3.39q4.92,0,7.21-1.71a6.24,6.24,0,0,0,2.3-5.34,6.06,6.06,0,0,0-2.06-5c-1.37-1.1-3.51-1.66-6.41-1.66h-4.43Z" transform="translate(0.14)"/><path class="cls-3" d="M1003.79,51.37h-5.26v8.52h-6.12V51.37H974.57V46.54l17.84-25.81h6.12V46.16h5.26Zm-11.38-5.21v-9.8q0-5.24.27-8.57h-.21a30.58,30.58,0,0,1-2.35,4.27l-9.7,14.1Z" transform="translate(0.14)"/></svg>